<mxfile host="65bd71144e">
    <diagram id="jWWm35aqLOveNDT9FGlo" name="Page-1">
        <mxGraphModel dx="2335" dy="1282" grid="1" gridSize="10" guides="1" tooltips="1" connect="1" arrows="1" fold="1" page="1" pageScale="1" pageWidth="827" pageHeight="1169" math="0" shadow="0">
            <root>
                <mxCell id="0"/>
                <mxCell id="1" parent="0"/>
                <mxCell id="9" style="edgeStyle=none;html=1;exitX=1;exitY=0.5;exitDx=0;exitDy=0;entryX=0;entryY=0.5;entryDx=0;entryDy=0;fontSize=18;" edge="1" parent="1" source="3" target="4">
                    <mxGeometry relative="1" as="geometry"/>
                </mxCell>
                <mxCell id="3" value="input:&lt;br&gt;(256,256,3)" style="rounded=1;whiteSpace=wrap;html=1;fontSize=18;fillColor=#FFFF66;" vertex="1" parent="1">
                    <mxGeometry x="20" y="222.5" width="120" height="60" as="geometry"/>
                </mxCell>
                <mxCell id="58" value="" style="edgeStyle=none;html=1;fontSize=24;" edge="1" parent="1" source="4" target="57">
                    <mxGeometry relative="1" as="geometry"/>
                </mxCell>
                <mxCell id="72" style="edgeStyle=none;html=1;exitX=1;exitY=0.5;exitDx=0;exitDy=0;entryX=0.5;entryY=0;entryDx=0;entryDy=0;fontSize=24;" edge="1" parent="1" source="4" target="46">
                    <mxGeometry relative="1" as="geometry"/>
                </mxCell>
                <mxCell id="4" value="" style="rounded=0;whiteSpace=wrap;html=1;fontSize=18;fillColor=#CCE5FF;" vertex="1" parent="1">
                    <mxGeometry x="180" y="185" width="180" height="135" as="geometry"/>
                </mxCell>
                <mxCell id="8" style="edgeStyle=none;html=1;exitX=0.5;exitY=1;exitDx=0;exitDy=0;fontSize=18;" edge="1" parent="1" source="5" target="7">
                    <mxGeometry relative="1" as="geometry"/>
                </mxCell>
                <mxCell id="5" value="3x3 conv, 64" style="rounded=1;whiteSpace=wrap;html=1;fontSize=18;" vertex="1" parent="1">
                    <mxGeometry x="210" y="210" width="120" height="30" as="geometry"/>
                </mxCell>
                <mxCell id="7" value="3x3 conv, 64" style="rounded=1;whiteSpace=wrap;html=1;fontSize=18;" vertex="1" parent="1">
                    <mxGeometry x="210" y="270" width="120" height="30" as="geometry"/>
                </mxCell>
                <mxCell id="62" value="" style="edgeStyle=none;html=1;fontSize=24;" edge="1" parent="1" source="10" target="61">
                    <mxGeometry relative="1" as="geometry"/>
                </mxCell>
                <mxCell id="73" style="edgeStyle=none;html=1;exitX=1;exitY=0.5;exitDx=0;exitDy=0;fontSize=24;" edge="1" parent="1" source="10" target="53">
                    <mxGeometry relative="1" as="geometry"/>
                </mxCell>
                <mxCell id="10" value="" style="rounded=0;whiteSpace=wrap;html=1;fontSize=18;fillColor=#99CCFF;" vertex="1" parent="1">
                    <mxGeometry x="470" y="185" width="180" height="135" as="geometry"/>
                </mxCell>
                <mxCell id="14" style="edgeStyle=none;html=1;exitX=0.5;exitY=1;exitDx=0;exitDy=0;entryX=0.5;entryY=0;entryDx=0;entryDy=0;fontSize=18;" edge="1" parent="1" source="12" target="13">
                    <mxGeometry relative="1" as="geometry"/>
                </mxCell>
                <mxCell id="12" value="3x3 conv, 128" style="rounded=1;whiteSpace=wrap;html=1;fontSize=18;" vertex="1" parent="1">
                    <mxGeometry x="490" y="210" width="120" height="30" as="geometry"/>
                </mxCell>
                <mxCell id="13" value="3x3 conv, 128" style="rounded=1;whiteSpace=wrap;html=1;fontSize=18;" vertex="1" parent="1">
                    <mxGeometry x="490" y="270" width="120" height="30" as="geometry"/>
                </mxCell>
                <mxCell id="65" value="" style="edgeStyle=none;html=1;fontSize=24;" edge="1" parent="1" source="15" target="64">
                    <mxGeometry relative="1" as="geometry"/>
                </mxCell>
                <mxCell id="75" style="edgeStyle=none;html=1;exitX=1;exitY=0.5;exitDx=0;exitDy=0;entryX=0.5;entryY=0;entryDx=0;entryDy=0;fontSize=24;" edge="1" parent="1" source="15" target="74">
                    <mxGeometry relative="1" as="geometry"/>
                </mxCell>
                <mxCell id="15" value="" style="rounded=0;whiteSpace=wrap;html=1;fontSize=18;fillColor=#66B2FF;" vertex="1" parent="1">
                    <mxGeometry x="750" y="185" width="180" height="135" as="geometry"/>
                </mxCell>
                <mxCell id="19" style="edgeStyle=none;html=1;exitX=0.5;exitY=1;exitDx=0;exitDy=0;fontSize=18;" edge="1" parent="1" source="17" target="18">
                    <mxGeometry relative="1" as="geometry"/>
                </mxCell>
                <mxCell id="20" style="edgeStyle=none;html=1;fontSize=18;" edge="1" parent="1" source="17" target="18">
                    <mxGeometry relative="1" as="geometry"/>
                </mxCell>
                <mxCell id="17" value="3x3 conv, 256" style="rounded=1;whiteSpace=wrap;html=1;fontSize=18;" vertex="1" parent="1">
                    <mxGeometry x="770" y="192.5" width="120" height="30" as="geometry"/>
                </mxCell>
                <mxCell id="30" style="edgeStyle=none;html=1;exitX=0.5;exitY=1;exitDx=0;exitDy=0;entryX=0.5;entryY=0;entryDx=0;entryDy=0;fontSize=18;" edge="1" parent="1" source="18" target="25">
                    <mxGeometry relative="1" as="geometry"/>
                </mxCell>
                <mxCell id="18" value="3x3 conv, 256" style="rounded=1;whiteSpace=wrap;html=1;fontSize=18;" vertex="1" parent="1">
                    <mxGeometry x="770" y="237.5" width="120" height="30" as="geometry"/>
                </mxCell>
                <mxCell id="68" value="" style="edgeStyle=none;html=1;fontSize=24;" edge="1" parent="1" source="23" target="67">
                    <mxGeometry relative="1" as="geometry"/>
                </mxCell>
                <mxCell id="77" style="edgeStyle=none;html=1;exitX=1;exitY=0.5;exitDx=0;exitDy=0;entryX=0.5;entryY=0;entryDx=0;entryDy=0;fontSize=24;" edge="1" parent="1" source="23" target="76">
                    <mxGeometry relative="1" as="geometry"/>
                </mxCell>
                <mxCell id="23" value="" style="rounded=0;whiteSpace=wrap;html=1;fontSize=18;fillColor=#3399FF;" vertex="1" parent="1">
                    <mxGeometry x="1030" y="185" width="180" height="135" as="geometry"/>
                </mxCell>
                <mxCell id="25" value="3x3 conv, 256" style="rounded=1;whiteSpace=wrap;html=1;fontSize=18;" vertex="1" parent="1">
                    <mxGeometry x="770" y="282.5" width="120" height="30" as="geometry"/>
                </mxCell>
                <mxCell id="34" style="edgeStyle=none;html=1;exitX=0.5;exitY=1;exitDx=0;exitDy=0;entryX=0.5;entryY=0;entryDx=0;entryDy=0;fontSize=18;" edge="1" parent="1" source="31" target="32">
                    <mxGeometry relative="1" as="geometry"/>
                </mxCell>
                <mxCell id="31" value="3x3 conv, 512" style="rounded=1;whiteSpace=wrap;html=1;fontSize=18;" vertex="1" parent="1">
                    <mxGeometry x="1060" y="192.5" width="120" height="30" as="geometry"/>
                </mxCell>
                <mxCell id="35" style="edgeStyle=none;html=1;exitX=0.5;exitY=1;exitDx=0;exitDy=0;fontSize=18;entryX=0.5;entryY=0;entryDx=0;entryDy=0;" edge="1" parent="1" source="32" target="33">
                    <mxGeometry relative="1" as="geometry"/>
                </mxCell>
                <mxCell id="32" value="3x3 conv, 512" style="rounded=1;whiteSpace=wrap;html=1;fontSize=18;" vertex="1" parent="1">
                    <mxGeometry x="1060" y="237.5" width="120" height="30" as="geometry"/>
                </mxCell>
                <mxCell id="33" value="3x3 conv, 512" style="rounded=1;whiteSpace=wrap;html=1;fontSize=18;" vertex="1" parent="1">
                    <mxGeometry x="1060" y="282.5" width="120" height="30" as="geometry"/>
                </mxCell>
                <mxCell id="79" style="edgeStyle=none;html=1;exitX=1;exitY=0.5;exitDx=0;exitDy=0;entryX=0;entryY=0.5;entryDx=0;entryDy=0;fontSize=24;" edge="1" parent="1" source="39" target="78">
                    <mxGeometry relative="1" as="geometry"/>
                </mxCell>
                <mxCell id="81" style="edgeStyle=none;html=1;exitX=1;exitY=0.5;exitDx=0;exitDy=0;entryX=0.5;entryY=0;entryDx=0;entryDy=0;fontSize=24;" edge="1" parent="1" source="39" target="80">
                    <mxGeometry relative="1" as="geometry"/>
                </mxCell>
                <mxCell id="39" value="" style="rounded=0;whiteSpace=wrap;html=1;fontSize=18;fillColor=#007FFF;" vertex="1" parent="1">
                    <mxGeometry x="1310" y="185" width="180" height="135" as="geometry"/>
                </mxCell>
                <mxCell id="44" style="edgeStyle=none;html=1;exitX=0.5;exitY=1;exitDx=0;exitDy=0;entryX=0.5;entryY=0;entryDx=0;entryDy=0;fontSize=18;" edge="1" parent="1" source="41" target="42">
                    <mxGeometry relative="1" as="geometry"/>
                </mxCell>
                <mxCell id="41" value="3x3 conv, 512" style="rounded=1;whiteSpace=wrap;html=1;fontSize=18;" vertex="1" parent="1">
                    <mxGeometry x="1340" y="192.5" width="120" height="30" as="geometry"/>
                </mxCell>
                <mxCell id="45" style="edgeStyle=none;html=1;exitX=0.5;exitY=1;exitDx=0;exitDy=0;fontSize=18;entryX=0.5;entryY=0;entryDx=0;entryDy=0;" edge="1" parent="1" source="42" target="43">
                    <mxGeometry relative="1" as="geometry"/>
                </mxCell>
                <mxCell id="42" value="3x3 conv, 512" style="rounded=1;whiteSpace=wrap;html=1;fontSize=18;" vertex="1" parent="1">
                    <mxGeometry x="1340" y="237.5" width="120" height="30" as="geometry"/>
                </mxCell>
                <mxCell id="43" value="3x3 conv, 512" style="rounded=1;whiteSpace=wrap;html=1;fontSize=18;" vertex="1" parent="1">
                    <mxGeometry x="1340" y="282.5" width="120" height="30" as="geometry"/>
                </mxCell>
                <mxCell id="46" value="block1 output:&lt;br&gt;(256,256,64)" style="rounded=1;whiteSpace=wrap;html=1;fontSize=18;fillColor=#FFE6CC;" vertex="1" parent="1">
                    <mxGeometry x="330" y="390" width="120" height="60" as="geometry"/>
                </mxCell>
                <mxCell id="47" value="&lt;font style=&quot;font-size: 24px&quot;&gt;block1&lt;/font&gt;" style="text;html=1;strokeColor=none;fillColor=none;align=center;verticalAlign=middle;whiteSpace=wrap;rounded=0;fontSize=18;" vertex="1" parent="1">
                    <mxGeometry x="240" y="130" width="60" height="30" as="geometry"/>
                </mxCell>
                <mxCell id="48" value="&lt;font style=&quot;font-size: 24px&quot;&gt;block2&lt;/font&gt;" style="text;html=1;strokeColor=none;fillColor=none;align=center;verticalAlign=middle;whiteSpace=wrap;rounded=0;fontSize=18;" vertex="1" parent="1">
                    <mxGeometry x="530" y="130" width="60" height="30" as="geometry"/>
                </mxCell>
                <mxCell id="49" value="&lt;font style=&quot;font-size: 24px&quot;&gt;block3&lt;/font&gt;" style="text;html=1;strokeColor=none;fillColor=none;align=center;verticalAlign=middle;whiteSpace=wrap;rounded=0;fontSize=18;" vertex="1" parent="1">
                    <mxGeometry x="800" y="130" width="60" height="30" as="geometry"/>
                </mxCell>
                <mxCell id="50" value="&lt;font style=&quot;font-size: 24px&quot;&gt;block4&lt;/font&gt;" style="text;html=1;strokeColor=none;fillColor=none;align=center;verticalAlign=middle;whiteSpace=wrap;rounded=0;fontSize=18;" vertex="1" parent="1">
                    <mxGeometry x="1090" y="130" width="60" height="30" as="geometry"/>
                </mxCell>
                <mxCell id="51" value="&lt;font style=&quot;font-size: 24px&quot;&gt;block5&lt;/font&gt;" style="text;html=1;strokeColor=none;fillColor=none;align=center;verticalAlign=middle;whiteSpace=wrap;rounded=0;fontSize=18;" vertex="1" parent="1">
                    <mxGeometry x="1370" y="130" width="60" height="30" as="geometry"/>
                </mxCell>
                <mxCell id="53" value="block2 output:&lt;br&gt;(128,128,128)" style="rounded=1;whiteSpace=wrap;html=1;fontSize=18;fillColor=#FFCC99;" vertex="1" parent="1">
                    <mxGeometry x="620" y="390" width="120" height="60" as="geometry"/>
                </mxCell>
                <mxCell id="60" value="" style="edgeStyle=none;html=1;fontSize=24;entryX=0;entryY=0.5;entryDx=0;entryDy=0;" edge="1" parent="1" source="57" target="10">
                    <mxGeometry relative="1" as="geometry"/>
                </mxCell>
                <mxCell id="57" value="pool&lt;br&gt;1/2" style="rounded=0;whiteSpace=wrap;html=1;fontSize=24;fillColor=#FF9999;" vertex="1" parent="1">
                    <mxGeometry x="384" y="227.5" width="60" height="50" as="geometry"/>
                </mxCell>
                <mxCell id="63" value="" style="edgeStyle=none;html=1;fontSize=24;entryX=0;entryY=0.5;entryDx=0;entryDy=0;" edge="1" parent="1" source="61" target="15">
                    <mxGeometry relative="1" as="geometry"/>
                </mxCell>
                <mxCell id="61" value="pool&lt;br&gt;1/2" style="rounded=0;whiteSpace=wrap;html=1;fontSize=24;fillColor=#FF9999;" vertex="1" parent="1">
                    <mxGeometry x="670" y="230" width="60" height="50" as="geometry"/>
                </mxCell>
                <mxCell id="66" value="" style="edgeStyle=none;html=1;fontSize=24;entryX=0;entryY=0.5;entryDx=0;entryDy=0;" edge="1" parent="1" source="64" target="23">
                    <mxGeometry relative="1" as="geometry"/>
                </mxCell>
                <mxCell id="64" value="pool&lt;br&gt;1/2" style="rounded=0;whiteSpace=wrap;html=1;fontSize=24;fillColor=#FF9999;" vertex="1" parent="1">
                    <mxGeometry x="950" y="227.5" width="60" height="50" as="geometry"/>
                </mxCell>
                <mxCell id="69" value="" style="edgeStyle=none;html=1;fontSize=24;entryX=0;entryY=0.5;entryDx=0;entryDy=0;" edge="1" parent="1" source="67" target="39">
                    <mxGeometry relative="1" as="geometry"/>
                </mxCell>
                <mxCell id="67" value="pool&lt;br&gt;1/2" style="rounded=0;whiteSpace=wrap;html=1;fontSize=24;fillColor=#FF9999;" vertex="1" parent="1">
                    <mxGeometry x="1230" y="227.5" width="60" height="50" as="geometry"/>
                </mxCell>
                <mxCell id="113" style="edgeStyle=none;html=1;exitX=0.5;exitY=1;exitDx=0;exitDy=0;entryX=0;entryY=0.5;entryDx=0;entryDy=0;fontSize=24;" edge="1" parent="1" source="74" target="111">
                    <mxGeometry relative="1" as="geometry">
                        <Array as="points">
                            <mxPoint x="950" y="900"/>
                        </Array>
                    </mxGeometry>
                </mxCell>
                <mxCell id="74" value="block3 output:&lt;br&gt;(64,64,256)" style="rounded=1;whiteSpace=wrap;html=1;fontSize=18;fillColor=#FFB366;" vertex="1" parent="1">
                    <mxGeometry x="890" y="390" width="120" height="60" as="geometry"/>
                </mxCell>
                <mxCell id="104" style="edgeStyle=none;html=1;exitX=0.5;exitY=1;exitDx=0;exitDy=0;entryX=0;entryY=0.5;entryDx=0;entryDy=0;fontSize=24;" edge="1" parent="1" source="76" target="97">
                    <mxGeometry relative="1" as="geometry">
                        <Array as="points">
                            <mxPoint x="1240" y="700"/>
                        </Array>
                    </mxGeometry>
                </mxCell>
                <mxCell id="76" value="block4 output:&lt;br&gt;(32,32,512)" style="rounded=1;whiteSpace=wrap;html=1;fontSize=18;fillColor=#FF9933;" vertex="1" parent="1">
                    <mxGeometry x="1181" y="390" width="120" height="60" as="geometry"/>
                </mxCell>
                <mxCell id="83" value="" style="edgeStyle=none;html=1;fontSize=24;" edge="1" parent="1" source="78" target="82">
                    <mxGeometry relative="1" as="geometry"/>
                </mxCell>
                <mxCell id="78" value="pool&lt;br&gt;1/2" style="rounded=0;whiteSpace=wrap;html=1;fontSize=24;fillColor=#FF9999;" vertex="1" parent="1">
                    <mxGeometry x="1530" y="227.5" width="60" height="50" as="geometry"/>
                </mxCell>
                <mxCell id="93" style="edgeStyle=none;html=1;exitX=0.5;exitY=1;exitDx=0;exitDy=0;entryX=0;entryY=0.5;entryDx=0;entryDy=0;fontSize=24;" edge="1" parent="1" source="80" target="92">
                    <mxGeometry relative="1" as="geometry">
                        <Array as="points">
                            <mxPoint x="1560" y="500"/>
                        </Array>
                    </mxGeometry>
                </mxCell>
                <mxCell id="80" value="block5 output:&lt;br&gt;(16,16,512)" style="rounded=1;whiteSpace=wrap;html=1;fontSize=18;fillColor=#FF8000;" vertex="1" parent="1">
                    <mxGeometry x="1500" y="390" width="120" height="60" as="geometry"/>
                </mxCell>
                <mxCell id="89" value="" style="edgeStyle=none;html=1;fontSize=24;" edge="1" parent="1" source="82" target="88">
                    <mxGeometry relative="1" as="geometry"/>
                </mxCell>
                <mxCell id="82" value="block5_pool output:&lt;br&gt;(8,8,512)" style="rounded=1;whiteSpace=wrap;html=1;fontSize=18;fillColor=#CC6600;" vertex="1" parent="1">
                    <mxGeometry x="1700" y="227.5" width="160" height="57.5" as="geometry"/>
                </mxCell>
                <mxCell id="136" style="edgeStyle=none;html=1;exitX=1;exitY=0.5;exitDx=0;exitDy=0;entryX=0.5;entryY=0;entryDx=0;entryDy=0;fontSize=36;" edge="1" parent="1" source="86" target="135">
                    <mxGeometry relative="1" as="geometry">
                        <Array as="points">
                            <mxPoint x="2068" y="419"/>
                        </Array>
                    </mxGeometry>
                </mxCell>
                <mxCell id="86" value="block5_pool output:&lt;br&gt;(16,16,512)" style="rounded=1;whiteSpace=wrap;html=1;fontSize=18;" vertex="1" parent="1">
                    <mxGeometry x="1700" y="390" width="160" height="57.5" as="geometry"/>
                </mxCell>
                <mxCell id="90" value="" style="edgeStyle=none;html=1;fontSize=24;" edge="1" parent="1" source="88" target="86">
                    <mxGeometry relative="1" as="geometry"/>
                </mxCell>
                <mxCell id="88" value="&lt;pre style=&quot;background-color: #ffffff ; color: #080808 ; font-family: &amp;#34;jetbrains mono&amp;#34; , monospace ; font-size: 9.8pt&quot;&gt;Conv2DTranspose(512)反卷积层&lt;/pre&gt;" style="rounded=1;whiteSpace=wrap;html=1;fontSize=24;fillColor=#FFFF99;" vertex="1" parent="1">
                    <mxGeometry x="1673.75" y="320" width="212.5" height="30" as="geometry"/>
                </mxCell>
                <mxCell id="96" value="" style="edgeStyle=none;html=1;fontSize=24;" edge="1" parent="1" source="92" target="95">
                    <mxGeometry relative="1" as="geometry"/>
                </mxCell>
                <mxCell id="92" value="Add1" style="rhombus;whiteSpace=wrap;html=1;fontSize=24;fillColor=#19FF30;" vertex="1" parent="1">
                    <mxGeometry x="1610" y="470" width="100" height="60" as="geometry"/>
                </mxCell>
                <mxCell id="100" value="" style="edgeStyle=none;html=1;fontSize=24;" edge="1" parent="1" source="95" target="98">
                    <mxGeometry relative="1" as="geometry"/>
                </mxCell>
                <mxCell id="95" value="Add1 output:&lt;br&gt;(16,16,512)" style="rounded=1;whiteSpace=wrap;html=1;fontSize=18;" vertex="1" parent="1">
                    <mxGeometry x="1600" y="550" width="120" height="60" as="geometry"/>
                </mxCell>
                <mxCell id="106" value="" style="edgeStyle=none;html=1;fontSize=24;" edge="1" parent="1" source="97" target="105">
                    <mxGeometry relative="1" as="geometry"/>
                </mxCell>
                <mxCell id="97" value="Add2" style="rhombus;whiteSpace=wrap;html=1;fontSize=24;strokeColor=#010802;fillColor=#32FA32;" vertex="1" parent="1">
                    <mxGeometry x="1300" y="670" width="100" height="60" as="geometry"/>
                </mxCell>
                <mxCell id="143" value="" style="edgeStyle=none;html=1;fontSize=36;" edge="1" parent="1" source="98" target="142">
                    <mxGeometry relative="1" as="geometry"/>
                </mxCell>
                <mxCell id="98" value="&lt;pre style=&quot;background-color: #ffffff ; color: #080808 ; font-family: &amp;#34;jetbrains mono&amp;#34; , monospace ; font-size: 9.8pt&quot;&gt;Conv2DTranspose(512)反卷积层&lt;/pre&gt;" style="rounded=1;whiteSpace=wrap;html=1;fontSize=24;fillColor=#FFFF99;" vertex="1" parent="1">
                    <mxGeometry x="1548.75" y="630" width="222.5" height="30" as="geometry"/>
                </mxCell>
                <mxCell id="103" style="edgeStyle=none;html=1;exitX=0;exitY=0.5;exitDx=0;exitDy=0;fontSize=24;" edge="1" parent="1" source="101" target="97">
                    <mxGeometry relative="1" as="geometry"/>
                </mxCell>
                <mxCell id="101" value="(32,32,512)" style="rounded=1;whiteSpace=wrap;html=1;fontSize=18;" vertex="1" parent="1">
                    <mxGeometry x="1600" y="680" width="120" height="40" as="geometry"/>
                </mxCell>
                <mxCell id="108" value="" style="edgeStyle=none;html=1;fontSize=24;" edge="1" parent="1" source="105" target="107">
                    <mxGeometry relative="1" as="geometry"/>
                </mxCell>
                <mxCell id="105" value="Add2 output:&lt;br&gt;(32,32,512)" style="rounded=1;whiteSpace=wrap;html=1;fontSize=18;" vertex="1" parent="1">
                    <mxGeometry x="1290" y="750" width="120" height="60" as="geometry"/>
                </mxCell>
                <mxCell id="146" value="" style="edgeStyle=none;html=1;fontSize=36;" edge="1" parent="1" source="107" target="145">
                    <mxGeometry relative="1" as="geometry"/>
                </mxCell>
                <mxCell id="107" value="&lt;pre style=&quot;background-color: #ffffff ; color: #080808 ; font-family: &amp;#34;jetbrains mono&amp;#34; , monospace ; font-size: 9.8pt&quot;&gt;Conv2DTranspose(256)反卷积层&lt;/pre&gt;" style="rounded=1;whiteSpace=wrap;html=1;fontSize=24;fillColor=#FFFF99;" vertex="1" parent="1">
                    <mxGeometry x="1237.5" y="830" width="222.5" height="30" as="geometry"/>
                </mxCell>
                <mxCell id="112" style="edgeStyle=none;html=1;exitX=0;exitY=0.5;exitDx=0;exitDy=0;fontSize=24;" edge="1" parent="1" source="109" target="111">
                    <mxGeometry relative="1" as="geometry"/>
                </mxCell>
                <mxCell id="109" value="(64,64,256)" style="rounded=1;whiteSpace=wrap;html=1;fontSize=18;" vertex="1" parent="1">
                    <mxGeometry x="1288.75" y="880" width="120" height="40" as="geometry"/>
                </mxCell>
                <mxCell id="115" value="" style="edgeStyle=none;html=1;fontSize=24;" edge="1" parent="1" source="111" target="114">
                    <mxGeometry relative="1" as="geometry"/>
                </mxCell>
                <mxCell id="111" value="Add3" style="rhombus;whiteSpace=wrap;html=1;fontSize=24;strokeColor=#000000;fillColor=#32FA32;" vertex="1" parent="1">
                    <mxGeometry x="1030" y="870" width="100" height="60" as="geometry"/>
                </mxCell>
                <mxCell id="117" value="" style="edgeStyle=none;html=1;fontSize=24;" edge="1" parent="1" source="114" target="116">
                    <mxGeometry relative="1" as="geometry"/>
                </mxCell>
                <mxCell id="114" value="Add3 output:&lt;br&gt;(64,64,256)" style="rounded=1;whiteSpace=wrap;html=1;fontSize=18;" vertex="1" parent="1">
                    <mxGeometry x="1020" y="950" width="120" height="60" as="geometry"/>
                </mxCell>
                <mxCell id="149" value="" style="edgeStyle=none;html=1;fontSize=36;" edge="1" parent="1" source="116" target="148">
                    <mxGeometry relative="1" as="geometry"/>
                </mxCell>
                <mxCell id="116" value="&lt;pre style=&quot;background-color: #ffffff ; color: #080808 ; font-family: &amp;#34;jetbrains mono&amp;#34; , monospace ; font-size: 9.8pt&quot;&gt;Conv2DTranspose(128)反卷积层&lt;/pre&gt;" style="rounded=1;whiteSpace=wrap;html=1;fontSize=24;fillColor=#FFFF99;" vertex="1" parent="1">
                    <mxGeometry x="968.75" y="1030" width="222.5" height="30" as="geometry"/>
                </mxCell>
                <mxCell id="151" value="" style="edgeStyle=none;html=1;fontSize=36;" edge="1" parent="1" source="118" target="120">
                    <mxGeometry relative="1" as="geometry"/>
                </mxCell>
                <mxCell id="118" value="(128,128,128)" style="rounded=1;whiteSpace=wrap;html=1;fontSize=18;" vertex="1" parent="1">
                    <mxGeometry x="1280" y="1105" width="120" height="40" as="geometry"/>
                </mxCell>
                <mxCell id="123" style="edgeStyle=none;html=1;exitX=1;exitY=0.5;exitDx=0;exitDy=0;entryX=0;entryY=0.5;entryDx=0;entryDy=0;fontSize=24;" edge="1" parent="1" source="120" target="122">
                    <mxGeometry relative="1" as="geometry"/>
                </mxCell>
                <mxCell id="120" value="&lt;pre style=&quot;background-color: #ffffff ; color: #080808 ; font-family: &amp;#34;jetbrains mono&amp;#34; , monospace ; font-size: 9.8pt&quot;&gt;Conv2DTranspose(3)反卷积层&lt;/pre&gt;" style="rounded=1;whiteSpace=wrap;html=1;fontSize=24;fillColor=#FFFF00;" vertex="1" parent="1">
                    <mxGeometry x="1477.5" y="1110" width="222.5" height="30" as="geometry"/>
                </mxCell>
                <mxCell id="122" value="output:&lt;br&gt;(256,256,3)" style="rounded=1;whiteSpace=wrap;html=1;fontSize=18;fillColor=#33FFFF;" vertex="1" parent="1">
                    <mxGeometry x="1880" y="1096.25" width="160" height="57.5" as="geometry"/>
                </mxCell>
                <mxCell id="131" value="&lt;font style=&quot;font-size: 36px&quot;&gt;version2&lt;/font&gt;" style="text;html=1;strokeColor=none;fillColor=#E5CCFF;align=center;verticalAlign=middle;whiteSpace=wrap;rounded=0;fontSize=24;" vertex="1" parent="1">
                    <mxGeometry x="40" y="500" width="180" height="120" as="geometry"/>
                </mxCell>
                <mxCell id="134" value="version2 对比 version1做出的改变：&lt;br&gt;在每次反卷积增大尺寸后做一次不改变核数核尺寸的Con2D卷积操作，用特征提取弥补反卷积导致的可能的损失。" style="text;html=1;strokeColor=none;fillColor=none;align=left;verticalAlign=middle;whiteSpace=wrap;rounded=0;fontSize=36;" vertex="1" parent="1">
                    <mxGeometry x="34" y="660" width="816" height="210" as="geometry"/>
                </mxCell>
                <mxCell id="141" style="edgeStyle=none;html=1;exitX=0.5;exitY=1;exitDx=0;exitDy=0;entryX=1;entryY=0.5;entryDx=0;entryDy=0;fontSize=36;" edge="1" parent="1" source="135" target="139">
                    <mxGeometry relative="1" as="geometry">
                        <Array as="points">
                            <mxPoint x="2068" y="500"/>
                        </Array>
                    </mxGeometry>
                </mxCell>
                <mxCell id="135" value="Conv2D(512)" style="shape=ext;double=1;rounded=0;whiteSpace=wrap;html=1;fontSize=36;strokeColor=#000000;fillColor=#CCCCFF;" vertex="1" parent="1">
                    <mxGeometry x="1942" y="440" width="252" height="50" as="geometry"/>
                </mxCell>
                <mxCell id="140" value="" style="edgeStyle=none;html=1;fontSize=36;" edge="1" parent="1" source="139" target="92">
                    <mxGeometry relative="1" as="geometry"/>
                </mxCell>
                <mxCell id="139" value="(16,16,512)" style="rounded=1;whiteSpace=wrap;html=1;fontSize=18;" vertex="1" parent="1">
                    <mxGeometry x="1771.25" y="480" width="120" height="40" as="geometry"/>
                </mxCell>
                <mxCell id="144" style="edgeStyle=none;html=1;exitX=0.5;exitY=1;exitDx=0;exitDy=0;entryX=1;entryY=0.5;entryDx=0;entryDy=0;fontSize=36;" edge="1" parent="1" source="142" target="101">
                    <mxGeometry relative="1" as="geometry">
                        <Array as="points">
                            <mxPoint x="1986" y="700"/>
                        </Array>
                    </mxGeometry>
                </mxCell>
                <mxCell id="142" value="Conv2D(512)" style="shape=ext;double=1;rounded=0;whiteSpace=wrap;html=1;fontSize=36;strokeColor=#000000;fillColor=#CCCCFF;" vertex="1" parent="1">
                    <mxGeometry x="1860" y="620" width="252" height="50" as="geometry"/>
                </mxCell>
                <mxCell id="147" style="edgeStyle=none;html=1;exitX=0.5;exitY=1;exitDx=0;exitDy=0;entryX=1;entryY=0.5;entryDx=0;entryDy=0;fontSize=36;" edge="1" parent="1" source="145" target="109">
                    <mxGeometry relative="1" as="geometry">
                        <Array as="points">
                            <mxPoint x="1675" y="900"/>
                        </Array>
                    </mxGeometry>
                </mxCell>
                <mxCell id="145" value="Conv2D(256)" style="shape=ext;double=1;rounded=0;whiteSpace=wrap;html=1;fontSize=36;strokeColor=#000000;fillColor=#CCCCFF;" vertex="1" parent="1">
                    <mxGeometry x="1548.75" y="820" width="252" height="50" as="geometry"/>
                </mxCell>
                <mxCell id="150" value="" style="edgeStyle=none;html=1;fontSize=36;" edge="1" parent="1" source="148" target="118">
                    <mxGeometry relative="1" as="geometry"/>
                </mxCell>
                <mxCell id="148" value="Conv2D(128)" style="shape=ext;double=1;rounded=0;whiteSpace=wrap;html=1;fontSize=36;strokeColor=#000000;fillColor=#CCCCFF;" vertex="1" parent="1">
                    <mxGeometry x="954" y="1100" width="252" height="50" as="geometry"/>
                </mxCell>
                <mxCell id="152" value="其中四个卷积层除了核数不同外，其余参数相同，均为 strides = 1，padding = same （不改变大小）&lt;br&gt;以及activation = relu。" style="text;html=1;strokeColor=none;fillColor=none;align=left;verticalAlign=middle;whiteSpace=wrap;rounded=0;fontSize=36;" vertex="1" parent="1">
                    <mxGeometry x="40" y="886.25" width="810" height="193.75" as="geometry"/>
                </mxCell>
            </root>
        </mxGraphModel>
    </diagram>
</mxfile>